<svg width="106" height="106" viewBox="0 0 106 106" fill="none" xmlns="http://www.w3.org/2000/svg">
<path d="M88.9958 63.6885C90.0117 60.2877 90.5417 56.7102 90.5417 53.0002C90.5417 49.2902 90.0117 45.7127 88.9958 42.3118C92.4408 39.6618 93.5008 34.8035 91.2483 30.9168C88.9958 27.0302 84.27 25.4843 80.2508 27.1627C75.2552 21.8956 68.8443 18.184 61.7892 16.4743C61.1708 12.146 57.4608 8.8335 53 8.8335C48.5392 8.8335 44.8292 12.146 44.255 16.4743C37.1869 18.1835 30.7617 21.8945 25.7492 27.1627C21.73 25.4843 17.0042 27.0302 14.7517 30.9168C12.4992 34.8035 13.5592 39.6618 17.0042 42.3118C15.9883 45.7127 15.4583 49.2902 15.4583 53.0002C15.4583 56.7102 15.9883 60.2877 17.0042 63.6885C13.5592 66.3385 12.4992 71.1968 14.7517 75.0835C17.0042 78.9702 21.73 80.516 25.7492 78.8377C27.5158 80.6927 29.415 82.3268 31.4908 83.7843L25.5283 97.1668H33.8317L38.16 87.4943C40.1033 88.3335 42.135 88.996 44.255 89.526C44.8292 93.8543 48.5392 97.1668 53 97.1668C57.4608 97.1668 61.1708 93.8543 61.745 89.526C63.7767 89.0402 65.7642 88.3777 67.6633 87.5827L71.9917 97.1668H80.295L74.3767 83.9168C76.4967 82.4152 78.4842 80.7368 80.295 78.8377C84.3142 80.516 89.0842 78.9702 91.2925 75.0835C93.5008 71.1968 92.4408 66.3385 88.9958 63.6885ZM59.89 82.8127C58.2558 80.781 55.7825 79.5002 53 79.5002C50.2175 79.5002 47.7 80.781 46.0658 82.8127C44.2992 82.4152 42.5767 81.8852 40.9425 81.1785L47.2583 67.0893C50.8827 68.536 54.9185 68.5675 58.565 67.1777L64.8367 81.2227C63.2467 81.8852 61.6125 82.4152 59.89 82.8127ZM46.2867 53.0885C46.2867 49.4227 49.2458 46.4635 52.9117 46.4635C56.5775 46.4635 59.5367 49.4227 59.5367 53.0885C59.5367 56.7543 56.5775 59.7135 52.9117 59.7135C49.2458 59.7135 46.2867 56.7543 46.2867 53.0885ZM82.6358 61.8777C79.9417 62.1868 77.4242 63.6885 75.9225 66.2502C74.5092 68.7235 74.4208 71.5502 75.3925 73.9793C74.1558 75.2602 72.8308 76.4085 71.4175 77.4685L64.7925 62.6727C66.9567 60.0668 68.2375 56.7543 68.2375 53.1327C68.2375 44.7852 61.3917 38.0718 52.9558 38.0718C44.52 38.0718 37.6742 44.8293 37.6742 53.1327C37.6742 56.666 38.9108 59.9343 40.9867 62.5402L34.2733 77.5127C32.9042 76.4968 31.6233 75.3927 30.4308 74.156C31.5792 71.6827 31.4908 68.7677 30.0333 66.2502C28.5317 63.6443 25.9258 62.0985 23.1433 61.8777C22.1717 58.8743 21.6858 55.6943 21.6858 52.3818C21.6858 49.5552 22.0833 46.8168 22.79 44.211C25.705 44.0785 28.5317 42.5327 30.0775 39.7943C31.7117 37.0118 31.6233 33.6993 30.1217 31.0493C34.185 26.721 39.4408 23.5852 45.3592 22.0835C46.8608 24.6893 49.7317 26.5002 53 26.5002C56.2683 26.5002 59.1392 24.7335 60.6408 22.0835C66.5592 23.5852 71.815 26.8093 75.8342 31.1377C74.4208 33.7435 74.3767 37.0118 75.9667 39.7502C77.5125 42.4002 80.2067 43.946 83.0333 44.1668C83.74 46.7727 84.1375 49.511 84.1375 52.3818C84.1375 55.6943 83.6075 58.8743 82.6358 61.8777Z" fill="#EF7D2D"/>
</svg>
