<svg width="103" height="100" viewBox="0 0 103 100" fill="none" xmlns="http://www.w3.org/2000/svg">
<g clip-path="url(#clip0_101_1087)">
<g clip-path="url(#clip1_101_1087)">
<path d="M73.3923 57.0525C70.5758 62.7607 66.7595 68.4475 62.8573 73.5537C59.1555 78.3677 55.1973 82.9789 51 87.3675C46.8026 82.979 42.8444 78.3678 39.1428 73.5537C35.2405 68.4475 31.4243 62.7607 28.6078 57.0525C25.759 51.2851 24.125 45.8833 24.125 41.25C24.125 34.1223 26.9565 27.2865 31.9965 22.2465C37.0365 17.2065 43.8723 14.375 51 14.375C58.1277 14.375 64.9635 17.2065 70.0035 22.2465C75.0435 27.2865 77.875 34.1223 77.875 41.25C77.875 45.8833 76.2356 51.2851 73.3923 57.0525ZM51 95C51 95 83.25 64.4378 83.25 41.25C83.25 32.6968 79.8522 24.4939 73.8042 18.4458C67.7561 12.3978 59.5532 9 51 9C42.4468 9 34.2439 12.3978 28.1958 18.4458C22.1478 24.4939 18.75 32.6968 18.75 41.25C18.75 64.4378 51 95 51 95Z" fill="#EF7D2D"/>
<path d="M51 52C48.1489 52 45.4146 50.8674 43.3986 48.8514C41.3826 46.8354 40.25 44.1011 40.25 41.25C40.25 38.3989 41.3826 35.6646 43.3986 33.6486C45.4146 31.6326 48.1489 30.5 51 30.5C53.8511 30.5 56.5854 31.6326 58.6014 33.6486C60.6174 35.6646 61.75 38.3989 61.75 41.25C61.75 44.1011 60.6174 46.8354 58.6014 48.8514C56.5854 50.8674 53.8511 52 51 52ZM51 57.375C55.2766 57.375 59.3781 55.6761 62.4021 52.6521C65.4261 49.6281 67.125 45.5266 67.125 41.25C67.125 36.9734 65.4261 32.8719 62.4021 29.8479C59.3781 26.8239 55.2766 25.125 51 25.125C46.7234 25.125 42.6219 26.8239 39.5979 29.8479C36.5739 32.8719 34.875 36.9734 34.875 41.25C34.875 45.5266 36.5739 49.6281 39.5979 52.6521C42.6219 55.6761 46.7234 57.375 51 57.375Z" fill="#EF7D2D"/>
</g>
</g>
<defs>
<clipPath id="clip0_101_1087">
<rect width="102.857" height="100" fill="white"/>
</clipPath>
<clipPath id="clip1_101_1087">
<rect width="86" height="86" fill="white" transform="translate(8 9)"/>
</clipPath>
</defs>
</svg>
