<svg width="108" height="104" viewBox="0 0 108 104" fill="none" xmlns="http://www.w3.org/2000/svg">
<path d="M64.3387 61.6637C61.3583 63.9992 57.6453 65.2728 53.817 65.2728C49.9887 65.2728 46.2756 63.9992 43.2953 61.6637C42.3849 60.9281 41.2111 60.5743 40.0322 60.6799C38.8533 60.7855 37.7658 61.342 37.0091 62.227C36.2523 63.1119 35.8883 64.2528 35.9969 65.3987C36.1056 66.5445 36.6782 67.6015 37.5887 68.337C42.1421 72.0316 47.8855 74.0554 53.817 74.0554C59.7485 74.0554 65.4919 72.0316 70.0453 68.337C70.9558 67.6015 71.5284 66.5445 71.637 65.3987C71.7457 64.2528 71.3817 63.1119 70.6249 62.227C70.2502 61.7888 69.7904 61.4267 69.2717 61.1612C68.753 60.8958 68.1856 60.7322 67.6018 60.6799C66.4229 60.5743 65.2491 60.9281 64.3387 61.6637ZM41.3782 45.6737C42.2136 46.4807 43.3435 46.9338 44.5214 46.9338C45.6992 46.9338 46.8292 46.4807 47.6645 45.6737C48.4949 44.8618 48.9609 43.7635 48.9609 42.6187C48.9609 41.4739 48.4949 40.3756 47.6645 39.5637C45.1131 37.2106 41.73 35.8989 38.2128 35.8989C34.6957 35.8989 31.3126 37.2106 28.7612 39.5637C28.2945 39.9521 27.9154 40.4302 27.6478 40.9678C27.3802 41.5054 27.2298 42.091 27.2061 42.6878C27.1824 43.2845 27.2858 43.8796 27.51 44.4357C27.7341 44.9918 28.0741 45.4968 28.5086 45.9191C28.9431 46.3414 29.4627 46.6719 30.0348 46.8898C30.6069 47.1076 31.2192 47.2082 31.8332 47.1851C32.4472 47.1621 33.0497 47.0159 33.6028 46.7558C34.1559 46.4957 34.6477 46.1273 35.0474 45.6737C35.4619 45.2675 35.955 44.9451 36.4983 44.7251C37.0415 44.5051 37.6243 44.3919 38.2128 44.3919C38.8014 44.3919 39.3841 44.5051 39.9274 44.7251C40.4707 44.9451 40.9638 45.2675 41.3782 45.6737ZM78.8728 39.5637C76.3214 37.2106 72.9383 35.8989 69.4212 35.8989C65.904 35.8989 62.5209 37.2106 59.9695 39.5637C59.2391 40.3926 58.8574 41.459 58.9008 42.5496C58.9441 43.6402 59.4093 44.6747 60.2033 45.4464C60.9973 46.2182 62.0617 46.6703 63.1837 46.7124C64.3058 46.7545 65.4029 46.3836 66.2557 45.6737C66.6702 45.2675 67.1633 44.9451 67.7066 44.7251C68.2499 44.5051 68.8326 44.3919 69.4212 44.3919C70.0097 44.3919 70.5924 44.5051 71.1357 44.7251C71.679 44.9451 72.1721 45.2675 72.5866 45.6737C73.4219 46.4807 74.5519 46.9338 75.7297 46.9338C76.9075 46.9338 78.0375 46.4807 78.8728 45.6737C79.7032 44.8618 80.1693 43.7635 80.1693 42.6187C80.1693 41.4739 79.7032 40.3756 78.8728 39.5637ZM53.817 8.66699C44.9992 8.66699 36.3795 11.2084 29.0478 15.97C21.7161 20.7315 16.0018 27.4992 12.6274 35.4174C9.25296 43.3355 8.37006 52.0484 10.0903 60.4542C11.8106 68.8601 16.0567 76.5813 22.2918 82.6416C28.5269 88.7019 36.4709 92.829 45.1192 94.501C53.7675 96.173 62.7318 95.3149 70.8783 92.0351C79.0248 88.7553 85.9878 83.2012 90.8867 76.075C95.7856 68.9489 98.4003 60.5708 98.4003 52.0003C98.4003 46.3097 97.2471 40.6748 95.0066 35.4174C92.7661 30.1599 89.4821 25.3829 85.3422 21.359C81.2022 17.3352 76.2874 14.1432 70.8783 11.9655C65.4692 9.78784 59.6718 8.66699 53.817 8.66699ZM53.817 86.667C46.7628 86.667 39.867 84.6338 34.0017 80.8246C28.1363 77.0154 23.5648 71.6012 20.8653 65.2667C18.1658 58.9322 17.4594 51.9619 18.8357 45.2372C20.2119 38.5125 23.6088 32.3355 28.5969 27.4873C33.5849 22.6391 39.9401 19.3374 46.8588 17.9998C53.7774 16.6621 60.9488 17.3487 67.466 19.9725C73.9833 22.5963 79.5536 27.0397 83.4727 32.7406C87.3918 38.4415 89.4837 45.1439 89.4837 52.0003C89.4837 61.1945 85.7259 70.0121 79.0371 76.5134C72.3483 83.0146 63.2764 86.667 53.817 86.667Z" fill="#009640"/>
</svg>
