<svg width="20" height="20" viewBox="0 0 20 20" fill="none" xmlns="http://www.w3.org/2000/svg">
<path d="M19.389 7.52833C18.9146 6.98083 18.2272 6.66667 17.5023 6.66667H17.4307C17.0154 2.92167 13.8363 0 9.98713 0C6.13799 0 2.95881 2.92167 2.54352 6.66667H2.49692C1.77286 6.66667 1.08626 6.98083 0.61105 7.52833C0.135837 8.07583 -0.0772175 8.80167 0.0251487 9.52083L0.908161 15.7075C1.2577 18.155 3.38326 20 5.8517 20H14.1484C16.6168 20 18.7424 18.1542 19.0919 15.7075L19.9749 9.52083C20.0773 8.8025 19.8634 8.07667 19.389 7.52833ZM9.98713 1.66667C12.9166 1.66667 15.3476 3.84417 15.7529 6.66667H4.22133C4.62663 3.84417 7.05762 1.66667 9.98713 1.66667ZM18.3271 9.285L17.444 15.4717C17.211 17.1033 15.7945 18.3342 14.1484 18.3342H5.8517C4.20469 18.3342 2.7882 17.1033 2.55601 15.4717L1.673 9.285C1.63804 9.0425 1.70795 8.80667 1.86774 8.62083C2.02836 8.435 2.25141 8.33333 2.49609 8.33333H17.5023C17.747 8.33333 17.97 8.435 18.1315 8.62083C18.2913 8.80667 18.362 9.0425 18.3271 9.285ZM10.8194 10.8333V15.8333C10.8194 16.2942 10.4474 16.6667 9.98713 16.6667C9.5269 16.6667 9.15488 16.2942 9.15488 15.8333V10.8333C9.15488 10.3725 9.5269 10 9.98713 10C10.4474 10 10.8194 10.3725 10.8194 10.8333ZM14.9806 10.8333V15.8333C14.9806 16.2942 14.6086 16.6667 14.1484 16.6667C13.6881 16.6667 13.3161 16.2942 13.3161 15.8333V10.8333C13.3161 10.3725 13.6881 10 14.1484 10C14.6086 10 14.9806 10.3725 14.9806 10.8333ZM6.65815 10.8333V15.8333C6.65815 16.2942 6.28613 16.6667 5.8259 16.6667C5.36567 16.6667 4.99365 16.2942 4.99365 15.8333V10.8333C4.99365 10.3725 5.36567 10 5.8259 10C6.28613 10 6.65815 10.3725 6.65815 10.8333Z" fill="white"/>
</svg>
