<svg width="154" height="122" viewBox="0 0 154 122" fill="none" xmlns="http://www.w3.org/2000/svg">
<g clip-path="url(#clip0_125_3033)">
<path fill-rule="evenodd" clip-rule="evenodd" d="M108.144 8.02246L127.016 52.8719L90.0424 52.8641L108.144 8.02246Z" fill="#707070"/>
<path fill-rule="evenodd" clip-rule="evenodd" d="M51.0564 31.6223L92.0703 14.5664L67.7119 71.0562L51.0564 31.6223Z" fill="#707070"/>
<path fill-rule="evenodd" clip-rule="evenodd" d="M132.503 64.6449L75.0689 88.8826L85.0984 64.5049L132.503 64.6449Z" fill="#707070"/>
<path d="M14.2555 101.526L9.90883 108.762H13.5166H13.6188H17.2266L14.2555 101.526ZM-0.325012 115.251L12.1882 94.8887H14.8371H14.9393H17.5881L26.2342 115.251H19.8597L18.5471 112.022H13.3201H13.2179H7.99096L6.06524 115.251H-0.325012Z" fill="#707070"/>
<path d="M42.1668 101.175C42.0646 102.194 41.6087 102.933 40.7834 103.392C40.3747 103.626 39.8716 103.805 39.29 103.937C38.7005 104.069 38.0324 104.116 37.2778 104.085L34.8726 103.999L35.4228 98.2879L38.0402 98.2335C38.7476 98.1946 39.3686 98.2413 39.9031 98.3813C40.4376 98.5136 40.8856 98.7081 41.2471 98.9571C41.9546 99.4317 42.2611 100.171 42.1668 101.175ZM48.3684 101.058C48.5806 98.8248 47.8418 97.2375 46.1361 96.296C44.2811 95.2767 42.8427 94.8799 40.5397 94.8799H29.3077L27.3427 115.243H33.7879L34.5504 107.337L38.5983 107.392C40.0917 107.431 41.4279 107.314 42.5912 107.034C43.7545 106.754 44.7527 106.365 45.5781 105.867C47.2287 104.84 48.1562 103.229 48.3684 101.058Z" fill="#707070"/>
<path d="M69.4334 110.699C68.8675 110.847 68.1522 110.995 67.5156 111.15C65.9435 111.532 64.3637 111.726 62.7681 111.726C60.3393 111.726 58.445 111.143 57.0774 109.968C55.7097 108.816 55.1202 107.244 55.3088 105.268C55.5211 103.035 56.4014 101.315 57.942 100.101C59.5061 98.8721 61.5262 98.2574 64.0021 98.2574C64.7016 98.2574 65.4091 98.3041 66.1086 98.4052C66.816 98.4986 67.5156 98.6387 68.223 98.8098C68.5688 98.9032 68.8439 98.981 69.0483 99.0277C69.2605 99.0744 69.4334 99.1211 69.5749 99.1755C69.7164 99.2222 69.8579 99.2767 69.9915 99.3312C70.1172 99.3856 70.2823 99.4479 70.4788 99.5179L70.5417 99.1133L70.9033 95.3784C70.6124 95.3317 70.2273 95.2851 69.9993 95.2306C69.3941 95.0983 68.726 94.9738 67.995 94.8571C67.264 94.7637 66.478 94.6859 65.6449 94.6237C64.8117 94.5692 63.9156 94.5381 62.9724 94.5381C58.7909 94.5381 55.4739 95.4718 53.0373 97.3392C50.5771 99.2222 49.178 101.93 48.84 105.447C48.5256 108.699 49.4688 111.205 51.6696 112.979C53.8704 114.745 57.0538 115.632 61.2118 115.632C63.0432 115.632 64.7645 115.516 66.3837 115.282C67.1933 115.165 67.9636 115.025 68.7024 114.846C68.8046 114.823 68.9068 114.8 69.009 114.776L69.1033 114.053L69.4334 110.699Z" fill="#707070"/>
<path d="M78.9833 115.251L80.626 98.1645H88.4468L86.7962 115.251H93.4065L95.3715 94.8887C88.3603 94.8887 81.3491 94.8887 74.3379 94.8887L72.3729 115.251H78.9833Z" fill="#707070"/>
<path d="M112.011 101.175C111.909 102.194 111.453 102.933 110.628 103.392C110.219 103.626 109.716 103.805 109.135 103.937C108.545 104.069 107.877 104.116 107.122 104.085L104.717 103.999L105.268 98.2879L107.885 98.2335C108.592 98.1946 109.213 98.2413 109.748 98.3813C110.282 98.5136 110.73 98.7081 111.092 98.9571C111.799 99.4317 112.106 100.171 112.011 101.175ZM118.213 101.058C118.425 98.8248 117.686 97.2375 115.981 96.296C114.126 95.2767 112.381 94.8799 110.086 94.8799H99.1524L97.1873 115.243H103.633L104.395 107.337L108.443 107.392C109.936 107.431 111.273 107.314 112.436 107.034C113.599 106.754 114.597 106.365 115.423 105.867C117.073 104.84 118.009 103.229 118.213 101.058Z" fill="#707070"/>
<path d="M137.981 104.842C137.596 108.958 134.538 111.152 131.072 111.152C127.629 111.152 124.902 109.005 125.287 104.842C125.672 100.703 128.698 98.6796 132.188 98.6796C135.607 98.6796 138.374 100.71 137.981 104.842ZM141.675 96.9366C139.734 95.1859 136.723 94.3145 132.636 94.3145C128.549 94.3145 125.374 95.1859 123.102 96.9366C118.661 100.298 117.435 109.036 121.616 112.771C123.589 114.522 126.608 115.393 130.655 115.393C134.703 115.393 137.887 114.522 140.19 112.771C144.591 109.402 145.88 100.656 141.675 96.9366Z" fill="#707070"/>
</g>
<defs>
<clipPath id="clip0_125_3033">
<rect width="154" height="122" fill="white"/>
</clipPath>
</defs>
</svg>
