<svg width="96" height="68" viewBox="0 0 96 68" fill="none" xmlns="http://www.w3.org/2000/svg">
<path fill-rule="evenodd" clip-rule="evenodd" d="M63.2439 0.355469L74.2138 26.5722L52.7217 26.5676L63.2439 0.355469Z" fill="#E6007E"/>
<path fill-rule="evenodd" clip-rule="evenodd" d="M30.0601 14.1507L53.9005 4.18066L39.7415 37.2017L30.0601 14.1507Z" fill="#EF7D2D"/>
<path fill-rule="evenodd" clip-rule="evenodd" d="M77.4029 33.4539L44.018 47.6221L49.8479 33.3721L77.4029 33.4539Z" fill="#009640"/>
<path d="M8.6685 55.013L6.14191 59.243H8.23903H8.29842H10.3955L8.6685 55.013ZM0.193207 63.0363L7.46688 51.1333H9.0066H9.066H10.6057L15.6315 63.0363H11.9261L11.1631 61.1488H8.1248H8.06541H5.02709L3.90772 63.0363H0.193207Z" fill="#EF7D2D"/>
<path d="M24.8926 54.808C24.8332 55.4039 24.5682 55.836 24.0885 56.1043C23.8509 56.2408 23.5585 56.3454 23.2204 56.4227C22.8777 56.5 22.4894 56.5273 22.0508 56.5091L20.6527 56.4591L20.9725 53.1206L22.494 53.0888C22.9052 53.066 23.2661 53.0933 23.5768 53.1752C23.8875 53.2525 24.1479 53.3662 24.3581 53.5118C24.7693 53.7892 24.9475 54.2213 24.8926 54.808ZM28.4975 54.7398C28.6208 53.4344 28.1914 52.5066 27.1999 51.9562C26.1217 51.3604 25.2856 51.1284 23.9469 51.1284H17.4179L16.2757 63.0315H20.0222L20.4654 58.4103L22.8184 58.4422C23.6864 58.4649 24.4632 58.3967 25.1393 58.2329C25.8155 58.0692 26.3958 57.8418 26.8755 57.5507C27.835 56.9503 28.3741 56.0088 28.4975 54.7398Z" fill="#EF7D2D"/>
<path d="M40.7421 60.3756C40.4132 60.4621 39.9974 60.5485 39.6273 60.6395C38.7135 60.8623 37.7952 60.976 36.8677 60.976C35.4559 60.976 34.3548 60.6349 33.5598 59.9481C32.7648 59.2749 32.4222 58.3562 32.5318 57.2009C32.6552 55.8955 33.1669 54.8903 34.0624 54.1808C34.9716 53.4621 36.1458 53.1028 37.585 53.1028C37.9917 53.1028 38.4029 53.1301 38.8095 53.1892C39.2207 53.2438 39.6273 53.3257 40.0385 53.4258C40.2396 53.4803 40.3995 53.5258 40.5183 53.5531C40.6416 53.5804 40.7421 53.6077 40.8244 53.6395C40.9066 53.6668 40.9888 53.6987 41.0665 53.7305C41.1396 53.7623 41.2356 53.7987 41.3498 53.8397L41.3863 53.6031L41.5965 51.4199C41.4275 51.3926 41.2036 51.3654 41.0711 51.3335C40.7193 51.2562 40.3309 51.1834 39.906 51.1152C39.4811 51.0606 39.0242 51.0151 38.5399 50.9787C38.0556 50.9469 37.5348 50.9287 36.9865 50.9287C34.5558 50.9287 32.6278 51.4745 31.2114 52.5661C29.7814 53.6668 28.9681 55.2497 28.7716 57.3055C28.5889 59.2067 29.1371 60.6713 30.4164 61.7083C31.6957 62.7408 33.5461 63.2593 35.9631 63.2593C37.0276 63.2593 38.0282 63.1911 38.9694 63.0546C39.44 62.9864 39.8877 62.9045 40.3172 62.7999C40.3766 62.7863 40.436 62.7726 40.4954 62.759L40.5502 62.336L40.7421 60.3756Z" fill="#EF7D2D"/>
<path d="M46.2933 63.0363L47.2482 53.0482H51.7943L50.8348 63.0363H54.6772L55.8194 51.1333C51.744 51.1333 47.6685 51.1333 43.5931 51.1333L42.4509 63.0363H46.2933Z" fill="#181717"/>
<path d="M65.4918 54.808C65.4324 55.4039 65.1674 55.836 64.6877 56.1043C64.4501 56.2408 64.1577 56.3454 63.8196 56.4227C63.4769 56.5 63.0886 56.5273 62.65 56.5091L61.2519 56.4591L61.5717 53.1206L63.0931 53.0888C63.5043 53.066 63.8653 53.0933 64.176 53.1752C64.4867 53.2525 64.7471 53.3662 64.9572 53.5118C65.3684 53.7892 65.5466 54.2213 65.4918 54.808ZM69.0967 54.7398C69.22 53.4344 68.7905 52.5066 67.7991 51.9562C66.7208 51.3604 65.7065 51.1284 64.3724 51.1284H58.0171L56.8749 63.0315H60.6214L61.0646 58.4103L63.4175 58.4422C64.2856 58.4649 65.0623 58.3967 65.7385 58.2329C66.4147 58.0692 66.995 57.8418 67.4747 57.5507C68.4342 56.9503 68.9779 56.0088 69.0967 54.7398Z" fill="#181717"/>
<path d="M80.5874 56.9503C80.3636 59.3564 78.5863 60.639 76.5714 60.639C74.5702 60.639 72.9848 59.3837 73.2087 56.9503C73.4325 54.5306 75.1916 53.348 77.2202 53.348C79.2076 53.348 80.8159 54.5351 80.5874 56.9503ZM82.7348 52.3292C81.6063 51.3058 79.8564 50.7964 77.4806 50.7964C75.1048 50.7964 73.2589 51.3058 71.9385 52.3292C69.3571 54.2941 68.6443 59.4019 71.075 61.5851C72.2218 62.6085 73.9762 63.1179 76.3292 63.1179C78.6822 63.1179 80.5326 62.6085 81.8713 61.5851C84.4299 59.6156 85.1792 54.5033 82.7348 52.3292Z" fill="#181717"/>
</svg>
