<svg width="23" height="21" viewBox="0 0 23 21" fill="none" xmlns="http://www.w3.org/2000/svg">
<path d="M14.0074 4.63148C14.9894 4.80449 15.8918 5.23817 16.5993 5.87702C17.3067 6.51586 17.787 7.33081 17.9786 8.21756M14.0074 1C16.0476 1.20467 17.95 2.02968 19.4024 3.33959C20.8548 4.64949 21.7708 6.36643 22 8.20848M20.9946 15.4533V18.1769C20.9958 18.4297 20.9384 18.68 20.8263 18.9117C20.7141 19.1433 20.5496 19.3513 20.3433 19.5222C20.1369 19.6932 19.8934 19.8233 19.6281 19.9043C19.3629 19.9853 19.0818 20.0154 18.803 19.9926C15.7093 19.6891 12.7377 18.7345 10.1267 17.2055C7.69763 15.8116 5.63816 13.9518 4.0946 11.7583C2.39553 9.38981 1.33816 6.69324 1.00816 3.88702C0.983037 3.63597 1.01608 3.38294 1.10518 3.14405C1.19428 2.90515 1.33749 2.68563 1.52568 2.49946C1.71388 2.31328 1.94295 2.16453 2.19829 2.06268C2.45364 1.96083 2.72967 1.90811 3.00882 1.90787H6.02489C6.51279 1.90353 6.9858 2.05956 7.35574 2.34685C7.72568 2.63415 7.96731 3.03313 8.0356 3.46941C8.1629 4.34102 8.39899 5.19683 8.73935 6.02052C8.87461 6.34547 8.90389 6.69862 8.82371 7.03813C8.74352 7.37764 8.55724 7.68928 8.28694 7.93612L7.01014 9.08912C8.44132 11.362 10.5253 13.2439 13.0423 14.5363L14.3191 13.3833C14.5924 13.1392 14.9375 12.971 15.3135 12.8986C15.6895 12.8262 16.0805 12.8527 16.4404 12.9748C17.3525 13.2822 18.3002 13.4954 19.2654 13.6103C19.7538 13.6725 20.1998 13.8947 20.5186 14.2345C20.8375 14.5743 21.0069 15.008 20.9946 15.4533Z" stroke="white" stroke-width="2" stroke-linecap="round" stroke-linejoin="round"/>
</svg>
