<svg width="43" height="30" viewBox="0 0 43 30" fill="none" xmlns="http://www.w3.org/2000/svg">
<path d="M3.90909 0.5H31.2727V7.75H37.1364L43 15V24.0625H39.0909C39.0909 25.5046 38.4731 26.8877 37.3735 27.9074C36.2738 28.9271 34.7824 29.5 33.2273 29.5C31.6721 29.5 30.1807 28.9271 29.0811 27.9074C27.9814 26.8877 27.3636 25.5046 27.3636 24.0625H15.6364C15.6364 25.5046 15.0186 26.8877 13.9189 27.9074C12.8193 28.9271 11.3279 29.5 9.77273 29.5C8.21759 29.5 6.72616 28.9271 5.62651 27.9074C4.52687 26.8877 3.90909 25.5046 3.90909 24.0625H0V4.125C0 3.16359 0.41185 2.24156 1.14495 1.56174C1.87804 0.881918 2.87234 0.5 3.90909 0.5ZM31.2727 10.4688V15H40.0095L36.1591 10.4688H31.2727ZM9.77273 21.3438C8.99516 21.3438 8.24944 21.6302 7.69962 22.1401C7.1498 22.6499 6.84091 23.3414 6.84091 24.0625C6.84091 24.7836 7.1498 25.4751 7.69962 25.9849C8.24944 26.4948 8.99516 26.7812 9.77273 26.7812C10.5503 26.7812 11.296 26.4948 11.8458 25.9849C12.3957 25.4751 12.7045 24.7836 12.7045 24.0625C12.7045 23.3414 12.3957 22.6499 11.8458 22.1401C11.296 21.6302 10.5503 21.3438 9.77273 21.3438ZM33.2273 21.3438C32.4497 21.3438 31.704 21.6302 31.1542 22.1401C30.6043 22.6499 30.2955 23.3414 30.2955 24.0625C30.2955 24.7836 30.6043 25.4751 31.1542 25.9849C31.704 26.4948 32.4497 26.7812 33.2273 26.7812C34.0048 26.7812 34.7506 26.4948 35.3004 25.9849C35.8502 25.4751 36.1591 24.7836 36.1591 24.0625C36.1591 23.3414 35.8502 22.6499 35.3004 22.1401C34.7506 21.6302 34.0048 21.3438 33.2273 21.3438ZM13.6818 18.625L25.4091 7.75L22.6532 5.17625L13.6818 13.4956L9.59682 9.7075L6.84091 12.2812L13.6818 18.625Z" fill="#009640"/>
</svg>
